/* XPM */
static char *door[] = {
/* columns rows colors chars-per-pixel */
"64 64 20 1 ",
"  c #0F0F1B",
". c #13131F",
"X c #15212C",
"o c #171723",
"O c #1A354B",
"+ c #24141A",
"@ c #27272F",
"# c #2C121C",
"$ c #311719",
"% c #32181A",
"& c #331719",
"* c #341819",
"= c #361A1A",
"- c #371819",
"; c #371919",
": c #381919",
"> c #3F3F4B",
", c #410E15",
"< c #4F4F5B",
"1 c gray100",
/* pixels */
"+++++++++++++.++++++++++++.++++++++.+++++++++++.++++++++++++++++",
"::::::::::::+.:::::::::::+.:::::::+.::::::::::+.:::::::::::::::+",
"::::::::::::+.:::::::::::+.:::::::+.::::::::::+.:::::::::::::::+",
"::::::::::::+.:::::::::::+.:::::::+.::::::::::+.:::::::::::::::+",
"::::::::::::+.:::::::::::+.:::::::+.::::::::::+.:::::::::::::::+",
"::::::::::::+.:::::::::::+.:::::::+.::::::::::+.:::::::::::::::+",
"OOOOOOOOOOOOOOOOOOOOOOOOOOOOOOOOOOOOOOOOOOOOOOOOOOOOOOOOOOOOOOOO",
"XXXXXXXXXXXXXXXXXXXXXXXXXXXXXXXXXXXXXXXXXXXXXXXXXXXXXXXXXXXXXXXX",
"XXXooo XXXXXXXXXXooo XXXXXXXXXXooo XXXXXXXXXXXooo XXXXXXXXooo XX",
"XXXooo XXXXXXXXXXooo XXXXXXXXXXooo XXXXXXXXXXXooo XXXXXXXXooo XX",
"XXXooo XXXXXXXXXXooo XXXXXXXXXXooo XXXXXXXXXXXooo XXXXXXXXooo XX",
"XXX    XXXXXXXXXX    XXXXXXXXXX    XXXXXXXXXXX    XXXXXXXX    XX",
"XXXXXXXXXXXXXXXXXXXXXXXXXXXXXXXXXXXXXXXXXXXXXXXXXXXXXXXXXXXXXXXX",
"................................................................",
"OOOOOOOOOOOOOOOOOOOOOOOOOOOOOOOOOOOOOOOOOOOOOOOOOOOOOOOOOOOOOOOO",
"XXXXXXXXXXXXXXXXXXXXXXXXXXXXXXXXXXXXXXXXXXXXXXXXXXXXXXXXXXXXXXXX",
"XXXooo XXXXXXXXXXooo XXXXXXXXXXooo XXXXXXXXXXXooo XXXXXXXXooo XX",
"XXXooo XXXXXXXXXXooo XXXXXXXXXXooo XXXXXXXXXXXooo XXXXXXXXooo XX",
"XXXooo XXXXXXXXXXooo XXXXXXXXXXooo XXXXXXXXXXXooo XXXXXXXXooo XX",
"XXX    XXXXXXXXXX    XXXXXXXXXX    XXXXXXXXXXX    XXXXXXXX    XX",
"XXXXXXXXXXXXXXXXXXXXXXXXXXXXXXXXXXXXXXXXXXXXXXXXXXXXXXXXXXXXXXXX",
"................................................................",
"::::::::::::+ :::::::::::+ :::::::+ ::::::::::+ :::::::::::::::+",
"::::::::::::+ :::::::::::+ :::::::+ ::::::::::+ :::::::::::::::+",
"::::::::::::+ :::::::::::+ :::::::+ ::::::::::+ :::::::<<<<<<<<<",
"::::::::::::+ :::::::::::+ :::::::+ ::::::::::+ :::::::>@@@@@@@@",
"::::::::::::+ :::::::::::+ :::::::+ ::::::::::+ :::::::>@@@@@@@@",
"=;;:::::::::+ :::::::::::+ :::::::+ ::::::::::+ :::::::>@@@@>>@@",
"%-*:::::::::+ :::::::::::+ :::::::+ ::::::::::+ :::::::>@@@@ >@@",
"$:&:::::::::+ :::::::::::+ :::::::+ ::::::::::+ :::::::>@@@@ >@@",
"::::::::::::+ :::::::::::+ :::::::+ ::::::::::+ :::::::>@@@@ >@@",
"::::,:::::::+ :::::::::::+ :::::::+ ::::::::::+ :::::::>@@@@ >@@",
"::::::::::::+ :::::::::::+ :::::::+ ::::::::::+ :::::::>@@@@ >@@",
"::::::::::::+ :::::::::::+ :::::::+ ::::::::::+ :::::::>@@@@ >@@",
"::::::::::::+ :::::::::::+ :::::::+ ::::::::::+ :::::::>@@@@ >@@",
"::::::::::::+ :::::::::::+ :::::::+ ::::::::::+ :::::::>@@@@@@@@",
"::::::::::::+ :::::::::::+ :::::::+ ::::::::::+ :::::::X        ",
"::::::::::::+ :::::::::::+ :::::::+ ::::::::::+ ::::::::::::::::",
"::::::::::::+ :::::::::::+ :::::::+ ::::::::::+ ::::::::::::::::",
"OOOOOOOOOOOOOOOOOOOOOOOOOOOOOOOOOOOOOOOOOOOOOOOOOOOOOOOOOOOOOOOO",
"XXXXXXXXXXXXXXXXXXXXXXXXXXXXXXXXXXXXXXXXXXXXXXXXXXXXXXXXXXXXXXXX",
"XXXooo XXXXXXXXXXooo XXXXXXXXXXooo XXXXXXXXXXXooo XXXXXXXXooo XX",
"XXXooo XXXXXXXXXXooo XXXXXXXXXXooo XXXXXXXXXXXooo XXXXXXXXooo XX",
"XXXooo XXXXXXXXXXooo XXXXXXXXXXooo XXXXXXXXXXXooo XXXXXXXXooo XX",
"XXX    XXXXXXXXXX    XXXXXXXXXX    XXXXXXXXXXX    XXXXXXXX    XX",
"XXXXXXXXXXXXXXXXXXXXXXXXXXXXXXXXXXXXXXXXXXXXXXXXXXXXXXXXXXXXXXXX",
"................................................................",
"OOOOOOOOOOOOOOOOOOOOOOOOOOOOOOOOOOOOOOOOOOOOOOOOOOOOOOOOOOOOOOOO",
"XXXXXXXXXXXXXXXXXXXXXXXXXXXXXXXXXXXXXXXXXXXXXXXXXXXXXXXXXXXXXXXX",
"XXXooo XXXXXXXXXXooo XXXXXXXXXXooo XXXXXXXXXXXooo XXXXXXXXooo XX",
"XXXooo XXXXXXXXXXooo XXXXXXXXXXooo XXXXXXXXXXXooo XXXXXXXXooo XX",
"XXXooo XXXXXXXXXXooo XXXXXXXXXXooo XXXXXXXXXXXooo XXXXXXXXooo XX",
"XXX    XXXXXXXXXX    XXXXXXXXXX    XXXXXXXXXXX    XXXXXXXX    XX",
"XXXXXXXXXXXXXXXXXXXXXXXXXXXXXXXXXXXXXXXXXXXXXXXXXXXXXXXXXXXXXXXX",
"................................................................",
"+++++++++++++ ++++++++++++.++++++++ +++++++++++.++++++++++++++++",
"::::::::::::+.:::::::::::+.:::::::+.::::::::::+.:::::::::::::::+",
"::::::::::::+.:::::::::::+.:::::::+.::::::::::+.:::::::::::::::+",
"::::::::::::+.:::::::::::+.:::::::+.::::::::::+.:::::::::::::::+",
"::::::::::::+.:::::::::::+.:::::::+.::::::::::+.:::::::::::::::+",
"::::::::::::+.:::::::::::+.:::::::+.::::::::::+.:::::::::::::::+",
"::::::::::::+.:::::::::::+.:::::::+.::::::::::+.:::::::::::::::+",
"::::::::::::+.:::::::::::+.:::::::+.::::::::::+.:::::::::::::::+",
"::::::::::::#.:::::::::::+.:::::::+.::::::::::+.:::::::::::::::+"
};
