/* XPM */
static char *grass[] = {
/* columns rows colors chars-per-pixel */
"64 64 256 2 ",
"   c #0D1106",
".  c #042A03",
"X  c #073406",
"o  c #143808",
"O  c #193914",
"+  c #112E10",
"@  c #21361D",
"#  c #2B3D23",
"$  c #0E4500",
"%  c #154A04",
"&  c #194707",
"*  c #1B5406",
"=  c #1A4715",
"-  c #1C5413",
";  c #224A09",
":  c #25580B",
">  c #244A16",
",  c #245313",
"<  c #265B14",
"1  c #23531C",
"2  c #2A541B",
"3  c #2B5C1B",
"4  c #2A5915",
"5  c #325A19",
"6  c #345612",
"7  c #2A650E",
"8  c #336A0C",
"9  c #39740A",
"0  c #2D6313",
"q  c #2D6618",
"w  c #316313",
"e  c #33631B",
"r  c #346B1C",
"t  c #3B6C1C",
"y  c #386918",
"u  c #3A7314",
"i  c #3B721D",
"p  c #3D7A1C",
"a  c #367618",
"s  c #2E730E",
"d  c #1E4C23",
"f  c #2A4A22",
"g  c #2C5422",
"h  c #2A5A26",
"j  c #345A28",
"k  c #375A33",
"l  c #334D20",
"z  c #346423",
"x  c #356B23",
"c  c #3B6C24",
"v  c #3A642B",
"b  c #3B6C2B",
"n  c #386728",
"m  c #3D7323",
"M  c #3D7B23",
"N  c #3D732B",
"B  c #397726",
"V  c #3A6634",
"C  c #346C29",
"Z  c #427C1C",
"A  c #447917",
"S  c #447017",
"D  c #434D24",
"F  c #436B24",
"G  c #436D2B",
"H  c #476B2A",
"J  c #427524",
"K  c #447C23",
"L  c #44732C",
"P  c #447B2B",
"I  c #4B7B2C",
"U  c #4A7728",
"Y  c #517D2C",
"T  c #436E33",
"R  c #446C3C",
"E  c #447332",
"W  c #4C7634",
"Q  c #447B32",
"!  c #4C7C33",
"~  c #4C7C3A",
"^  c #47763B",
"/  c #527C34",
"(  c #527D3B",
")  c #577A39",
"_  c #53683D",
"`  c #606936",
"'  c #4A531E",
"]  c #4B7844",
"[  c #537B44",
"{  c #577A46",
"}  c #557448",
"|  c #6C7345",
" . c #837A55",
".. c #3B801D",
"X. c #48841C",
"o. c #548E1E",
"O. c #4B8424",
"+. c #4B8B23",
"@. c #45822B",
"#. c #4B842C",
"$. c #4C8A2C",
"%. c #458425",
"&. c #52842C",
"*. c #538C2C",
"=. c #548825",
"-. c #4D9527",
";. c #54922C",
":. c #59962A",
">. c #4C8334",
",. c #4C8B34",
"<. c #4D833B",
"1. c #488535",
"2. c #538333",
"3. c #5A8435",
"4. c #538B34",
"5. c #5A8C35",
"6. c #53843B",
"7. c #5B843C",
"8. c #548C3B",
"9. c #5A8B3C",
"0. c #559234",
"q. c #5B9334",
"w. c #5D9A35",
"e. c #55933C",
"r. c #5C933C",
"t. c #5C9B3C",
"y. c #569B38",
"u. c #4D9833",
"i. c #629B2D",
"p. c #628C3E",
"a. c #618839",
"s. c #639C33",
"d. c #62933C",
"f. c #639C3C",
"g. c #699839",
"h. c #5DA339",
"j. c #64A23B",
"k. c #6AA43D",
"l. c #65A636",
"z. c #6BAB34",
"x. c #538442",
"c. c #5B8443",
"v. c #558B42",
"b. c #5B8C43",
"n. c #5B864A",
"m. c #5C8C4C",
"M. c #54834A",
"N. c #569343",
"B. c #5C9343",
"V. c #5D9A44",
"C. c #5E954A",
"Z. c #5B9949",
"A. c #5A8753",
"S. c #4E8347",
"D. c #638C44",
"F. c #638D4B",
"G. c #688B47",
"H. c #629444",
"J. c #639C44",
"K. c #6A9C45",
"L. c #64944B",
"P. c #6B954C",
"I. c #649B4B",
"U. c #6B9C4D",
"Y. c #6A9445",
"T. c #729B4D",
"R. c #73954C",
"E. c #668A56",
"W. c #639452",
"Q. c #6A9552",
"!. c #659A52",
"~. c #6B9C53",
"^. c #6D9C5A",
"/. c #66965A",
"(. c #739D54",
"). c #729D5A",
"_. c #779A56",
"`. c #768950",
"'. c #5DA446",
"]. c #64A444",
"[. c #6BA444",
"{. c #6CAA45",
"}. c #66A44C",
"|. c #6CA34C",
" X c #6CAB4B",
".X c #65AA43",
"XX c #72AB4D",
"oX c #74A749",
"OX c #74B34B",
"+X c #77B44B",
"@X c #6BA352",
"#X c #6CA953",
"$X c #6DA35A",
"%X c #69A655",
"&X c #73A453",
"*X c #7AA354",
"=X c #73AB54",
"-X c #7AAB55",
";X c #74A45B",
":X c #7BA45B",
">X c #74AC5B",
",X c #7BAB5C",
"<X c #74B352",
"1X c #7AB455",
"2X c #7CBB54",
"3X c #75B35B",
"4X c #7CB35B",
"5X c #7BBA5A",
"6X c #6BB24B",
"7X c #759D65",
"8X c #6D9363",
"9X c #73A461",
"0X c #7AA462",
"qX c #75AB62",
"wX c #7CAC63",
"eX c #7DAD6A",
"rX c #76A86C",
"tX c #7DB362",
"yX c #7CB666",
"uX c #67A365",
"iX c #7AC357",
"pX c #85965A",
"aX c #82AB5B",
"sX c #81A75A",
"dX c #82BB5D",
"fX c #85B65C",
"gX c #80B84D",
"hX c #9B9967",
"jX c #83AD64",
"kX c #83AD6B",
"lX c #86A767",
"zX c #96A767",
"xX c #83B364",
"cX c #84BB63",
"vX c #84B56B",
"bX c #8BB56B",
"nX c #84BA6B",
"mX c #8BBB6C",
"MX c #8AB865",
"NX c #86AB73",
"BX c #8CBB73",
"VX c #89B775",
"CX c #96B975",
"ZX c #93BE6F",
"AX c #A8AE75",
"SX c #88C457",
"DX c #89C368",
"FX c #96C677",
"GX c #93C973",
"HX c #A3DA7F",
"JX c #92B783",
"KX c #B2B685",
"LX c #8FC683",
"PX c #AACD8B",
"IX c #A6E183",
"UX c #C9CA94",
/* pixels */
"4XH.[.=.A oXY g.SXaX|.8.L F.F.v #.H.N A././.DX{.t &Xw c S.N S.N V - C ~ , n j A.@.,.u.'.h.iXl.l.z.SX3.3 ~ v.@.q.q.r.I.i m ;X].:.",
"0.A =.Z A g.=.fX{.XX#X&.w F F X J $Xv.N b V.cX5.jXFXL n 6.v.v.t C C e ! e 3 = o $ @.V.%.s u.y.,.MXfX5.c Q @.J :.XXs.r.i t $.&.w.",
"s.o.:.i.X.i.=.MX0. XtX}.2.b.G.F b.mXxX#.i f.U.M ~.jX;X6.J >.t.l.m #X#.|.H.Y.I.6.% P Z.M ..@.8.Q aXK.5.4.q.r.J.<Xs.;.q.K Z =.X.=.",
"o.o.i.i.A O.A U.J.=X3X|.B.d.Y.9.<.6.f.s.s.{.d.b.( n ! >.4.{.i.:.;.DX1XgXk.q.4.I.3.4.r.*.'.u.I.2.0Xb.q.j.k.{.XXH.A w.k.Z p q.:.u ",
"9 o.s.z.o.g.r.|.3X=X<XcXcX1X<XdX9X<.*.i.{.oXJ.~.G : 6.9.K O.X.+X* +.{.2X{.[.O.-Xk.g.:.o.+Xi.sX5.c.J A =.=.+X2X4.*.{.k.Z 9 o.f.X.",
"A z.z.{.l.gXOX}.4.,.#.].1X[.s.OXFX=X#.O.s.].oXK.xXe ; w 9.[.O.:.6X.X+X<Xj.[.8 #.=.k.o.o.:.i.gX:.d.K S y S oX2X;.$.s.*.*.*.*.r.4.",
"g.g.O.:.:.[.t.$.#XqX|.t.k.h.;.:.4.r.m ! 8.5.XXf.K.d.&.J <.P m B.0.$.%.:.*.#XB.9.>.<X;.y.-.i.+X=.SXk.q.U U 5.;.p J 4.O.s.f.q.J.#.",
"g.&.8 =.:. X X XV.3Xt.p +.h.w.l.f.1X!.VXeXQ :.X.K -XT.8.8.b : q s %.a w.$.|.>XP 9XyX@.iX<Xz.{.5.z.:.=.a.c.9.t.h.I |.$.Z X.r.|.J ",
"f.XXu |.DXGXK f.qX;Xb.U.e.i J.1XK.fXK.DX3X3X}.r.c ^.D.*X/ P.n g <.7 4.H.I ~.tX/.DXu.r.5X1XH.q.q.K =.0.*.0.3Xp 3XZ k.:.o.A +Xk.X.",
"f.K.t.Z dXXX{.K.U.b.B.H.2.m J H.=.K.r.>X}.%XyXcXtXMXR.) F W 5 2 Q P &XJ.m >.L.!.%XN.r.}.4XMXcXXXfXMXoX* u #.'.=Xq.[.:.o.X.s.w.*.",
"K.].K.f.[.oX<X1XB.K U.I.B.e.m H.fX-X<.I./.qXqXZ.yX4X[.3.p.) z ; B.2.4.4.J.cX~.<.V.V.8.e. XoXK.[.XXGX1X8 #.K r.U q.q.*.f.s.k.f.K.",
"K.O.s.cX[.0.f.1X$.K H.|.~.L.8.^.r 6.v.S.C N v.9Xj.{.k.oXsXR.G e J 4.f.5.XXcX9.>.8.>.P 9.H.i w 0.j.iXt.r.U 4.U 3.K K X.;.*.q.0.J.",
"q.8 |.J.1Xu K.f.$.5.&.K.I.>.L.L.8.N N j n T ~ 6.h.OXd.-XY.*X! 7.#.*.&.A f.=Xm r Q c r >.%X2.B 8.K $.J.H.3.&XJ Y.#.#.%.u Z O.2.>.",
"4.>.|.B.e.r.>XH.|.>Xb.@XI.P I.L.>XqXVX( 2 & 3 c.q.1Xd.,Xb.1X5.}.1Xr.A 9 [.dX&.J ! c < c !.>XZ.,.i u cX$.r.&X5.9.Q 9.J.4.J.J.H.P ",
"c B.>.@Xi $XL.I.@X&X@X@X9.#.8.J.3XN.Q.F G v n G J U.L._.L.qX'..XoX[.{.s.f.[.d.xXv.n 4 q P N.N.1.T.5.&Xt i U b.I.<.b.=X@XnX>X@XP ",
"* < c P N N Q >.<.E L.4.P #.i r.N.2.0X{ n.W L ! / P.Q.( B.%X6Xh.XXq.g.k.{.[.q.|.F.e 4 c < * N Z.R.p.Y ,XI y r >.^.e.9.#.J.<.8.N ",
"h C e I p.K.K.8.5.aX*X5.3.Y v v d.|.K.;Xr.I.b.&Xy c.c.6.r e.y.%Xh.,.P B B %XyX0.Q 9X1 V = = 1 W.Q v.N.!.<.C N h q B a B ,.,.C C ",
"- C 6.&XxX4XtX3XK.xXfX&XY.! H n.U 3.U.H./ I b.~.% / :X5.q * M 3Xt.V.}.'.Z.3XyXe.6.9Xn S.A.V 3 , z N Q 1.x < N C u.1.$.$.@.B b C ",
"Q >.L.-XxXxX>XqX=X&X&XfXaXp.7.0X2.T.CXP.D.G L._.!.L.B.P }.,.,.'.}.#X%XN.,.}.3X XP B.x 6.eXC.v.N 1.N.B.V.#.M Z.B.%.%.;.J.4.8.>.z ",
"#XJ.r.3.K.xX$X!.DX}.r.=XfX(.D._.t 7.(.6.G 5 F G Y.&X9.N e.M >.N.5X3X%X8.1.Z.3X5X[.|.B.r.!.I.#.#.>.B.I.|.8.$.J.H.-.s X.f.].4XxX9.",
"{.{.|.&.H.FXnX@XLX4X[.oX-X-XT.F.D.*X:X,XH.P.7.( q !.<.<.B C Q <.Z.}.}.Z.V.V.'..XXXf.<XOX0.cXw P m #.8.|.r.,.f.0.oXO.*.K.K.cXIXDX",
"O.g.DXK.U.FX>X|.mX1X4XoXXX4XcX=X=X,XU.,XY.~.P L q <.- Q E Z.S.3 ,.Z.Z.Z.%X}.w.h.].&.q.[.w.IX$.B.K @.,.|.}.[.OXf.g.f.|.#Xt.[.dX2X",
"q.f.DX*XK.fXq.f.*XY.U.XXXX1XyX}.1XXX[.=XI.5.P #.- q - C 1 - ] = N.!.Z.Z.%X#X{.iXDX Xq.j.w.DXt.#.>.m r 1.B.].1Xl.e.b.N.N.0.-.-.-.",
"2Xq.-XY.Y.-X*.{.sX3.3.[.|. X'...].0.].J.OX,.t.@XS.h = h = . ] d q Q 1.1.V.,.;.{.5XdX.XOXOXj.@Xi Z.1.< x 1.J.1Xk.$Xv.q * B -.-.-.",
"l.:.l.k.[.5.2.3.D.P./ L 6.B.4.0 e.3X#X%X1.%X#X,.<., 1 v = . M.k #X,.2.2.r K t.+.h.6X6Xh.iXh.i.:.|.J 6., e qXr.d.+.,X~ % J u 5.2.",
"+.l.2X2XXXoX*XfXP.wXI c ! ! r >.B.e.,.I.|.yXr.P 0Xn b M.^ [ ^ 1 3 1 j j 2 z <.1.-..Xh...<Xh.k.dXwXL * I.U.w &.f.q.r.x M >X;.r.%X",
"M $.J.>XMXmXaXsXY.aXU t W t % x.U.J w >.!.GX!.xXjXc e W T ^.b b h v k k d O d h s .X;.a <Xr.O.+XnX! e Q ! J q.+X+.5.c x t.;.q.r.",
"Q 1.b.;XMXZX*Xg.oXaXT.2.L.~ e x.FX;XL.2./ U.t (.tXD.>.6.6.L.7.;Xg j f O + X + d a N.K 7 ,.0.f.GXB.6.L.8.e.1X[.:.:.].1.r i X.;.H.",
"<.m.wXFXBX,XsXsXMXg.aX7.(.F.m.T D.D.;XT.L.vX2.U.9.L.H.L.U.y P 2.a.) j l j f > 2 %X3X1X|.$.K m p @X>XJ =X>X$.dXo.OX1.q B p 8 a #X",
"v.C.;XBXCXjXaXaXZX3.MXp.P.;XwX7.wX;XbXvXP.mXb.W ;XvXeXvXFX2.T.K.MX*Xp.G.E.D.! m i O.J.5Xq.f.H.2.DX].@.4.4.*.+XOXiX1.B S.,.0.%.,.",
"v.~.~.U.,XbXaXp.CXR.bX:XR.bX;XxXvX~.@X;X6.nXFXeX;X^.Q.;X;XB.U.,XR.Y 3.R.Y.P.[.f.H.K.*.;.u q.].>Xh.X.5XJ.0.3X$.w.'.%XuXrX}.GX}.N.",
">.cXFXU.p.aXlXY.a.) ) R.! T.w sXLXwX;XwXx 6.vX$X^.F.wXvXD.&XH.mX-X3.H.T.) &.f.q.J |.s.k.k.+Xr.3Xz.l.OX<Xe.P $.y.a B uXLX%X3XZ.yX",
"B $XnXFX,XCXxX:XvXW :XeXW L.(.P.&X>XW L.) T.Y p.6.W.~ ;X<.L.x W U.9.-X;X-Xr.&X&XJ.>X8.J.3XJ.H.%.9 f.0.7.z C 3 Q % S.<.3X,.}.,.V.",
"Z.I.T.,XmXMXjXT.eX/ &X,X9.P.~.F.U.wXU.).:XpXG.sX~ x.C.L.F.n.6.( bXK.J T.d.,X&XxXnXcXK.0.H.r.r.,.%.K : , = k d h Q 1.B u.3XB u...",
"%XZ.;X;XjXp.(.jXU.! F.Q.~.(.P.L.&.U.D.) 0XR.R.FXjX^.).x.L ~ ~.F.2.8.J wXb.,X9.&XB.V.|.H.#X!.P m ! P 2 2 h k = X S.$ %XB 5X6XB }.",
"%XZ.(._.(.) T.jXjX(.:X0XCXjX:X:Xp.*X2.) kXjXR.FX;XqXnXPX~.xXL.c Y.~.8.E L 6.9.H.@X|.qXU.,XDX|.,X>.b.~ R R V h h B !.3X3X#X'.y.V.",
"5X=Xb.Q.G._.Q.P.ZXjXjX).CXQ.~.T.T.aXU D.eXbXY *X*XF.H._.) (.(.2.b.~.~ 3 x.eXjXU.>.>.L.8.U.qXb.!.4.r.) n H T S.W.N nXV.DXh.h..X.X",
"[.1X~.:Xn.lXG.p.sXT.Q.n.lXc.(.Y.*X_.; G 7.(.L &X(.D.bXjXFXjXbXD.Y.BX^.S.M.kXD.P L ~ L.Q.eXvXU.L.f.9.I 5 H G ( v.e.#.$.y..X.Xy.DX",
"+.K.jXlX7X`.R.Y.sXY.G.E.CXE.zXoXaX_.H ) c.U.r.MX:X7.P.U P.I T.(.J ~.A.h M.7XBXIXW.F.T G c.L.^.^.L.b.[ 5 T g v v B.V.s -.OXa .X-.",
"X.U L._.CXlXpXa.sX) ) { kX) sX3.R.R.(.:XlXb.2.H.T.(.T.:X*XP.(.CX,XqXeXk JX{ ^.L.nXCXm.L.).W.^.m.m.A.} O O . j ] i r y.X.:.2X+.'.",
"g.d.-XbXjXQ._.NXsX| bX) aXR.*XR.sXR.p.) Y R.R.) U.b.xXD.;X6.~.c.L.! BXW PXE 1 [ '.%X'.Z.N A.{ E.1.9Xj > f @ . > - - Q @.* s z.l.",
"*.*.&.aXjXD.:X_.G.3.bXCXF a._.R.3._.G.:XY sXG.a.L./ b b.6.m./.eX~.Q C.6.C.Q v.$Xx N.uXW.m.<.^.7X!./.{ 8Xf O l R ^ = E C.e.s ..X.",
"*.*.i 4X4XH.mXL.c.bXmXPXa.a.G.jX*X*X_.H.bXbX*XF b.^.b.Q.z E T m.1.N.8.C.B.Z.qXnXqXyXv.,.! >.W.6.qX%Xm.7Xk d # = X = g C q 7 ..h.",
"*.O.%.t.r.J.xX9.(.FX,XwXjX7.L.:XG.:XPXD._.Y P./ , n.W.v j ^ n.S.- >X,.r 3X$.N.%X;XBX3 !.P qX$Xe.x $X^ n.7XE.j > V V . % < '.%.-.",
"$.K q.K i V.0.@.aXU.b.T.7.! ~.! Q.).7.W 7.Q./ U n.W.L & z [ T , 7 yX1.B N.@.}.y.$ [ ; !.J I.b.J x qXN.!.VXkX( T e G e J u.$.+.OX",
"e.4.1X#.K J.M 0.U.;X! ~.! [ ^ m.) ;X).7.( W c.lX! <., ^ ~ E.z ~ % N Q >XM %XFX4.~ b.c z b ( W.^ $X8.P qX$X^.) > H 4 4 % 5X{.6X-.",
"9.9.U.B.%XH.M 3Xp.jXY.D.0XQ.j 7XqX).L.W vXF.b.W.L.^.b.(.!.b o b X $ C /.x @XFXi <.B - . = v R g <.r : '.}.>Xc.6 n.( ~ e 8.,.t.q.",
"y L L Y.nX,.N DXT.U jXG.VXE.c.{ ).kX( ).b.F.4 ( H.7.6.e ;Xn c W ] E W.E x.b.FX>.Q /.9XuX[ E.l O - !.e.'.4X,XW G } f . n.<.<.r I.",
"( E x Q I.yX1.cXW.tXtX3.aXZX/ ) *XY.) 0XQ.G w GX< r. Xq.I.L n.8Xq.%.@.N 8.,.,.2X%.V.e.^.eX{ j j V R v.#X1XDXv./.&.w z b B.5.8 <.",
"b S.E B q t y >XS.L.9.5.d.FXG.G.6 W ) L.x.;XBX&.>.FX}.$.=X8., { w.1X%XN.N.>.$.t.t t wXVX/.^ v 8X8X= m ;XK &.^ M.d.t M.( 7 4.e.B ",
"^.rXv.I.B.6.P J.L.eX-XMXt F t Q.F 2.jX).( L.mX$XW ! {.1Xp 4.V.Q.,.%X<.yXnXN N >X< W b.0Xc.[ kX^ o } P.S 6 T.( o & 5 g 1 ! K q $X",
"~ N $ <.^.V.r.f.;XI./ ;XG.F e :XjX! b.e L.c.: 6.H / Y.f.y.O.m >X% eXv.v.!.!.%Xv.F.~ eXF.W.PX0X) _ | `.AXAXG.l } p.3 h V < * 0 T ",
"!.x.3 /.L.W d.ZX9./ I G (.F 4 Q.qX@XL.~ BXwXL 5 W , i Z dX$.#.I.x VXQ <.v.!.C.N T n.z P.lX) D.G.` `.AXpX' ` `.> W v f = & m 9.N ",
"L.6.N F.b : 8 a.S Y _.; E 2 % b ~ N.L #X@XL @X; f . : M <XM xXL.$X!.x >XL./ E v.x.{ E.G.VXCXG.CX| AXKX .` | zX_ T A.k v L.&.0 5 ",
"t e b ^ b 6.&.q.a.: b.; v M.e 3 !.Q < =X&XH.0XE & /.B : tXr ! n.6.!.B.&Xm K.C.v.~ !.L W lXKXAXG.` hXhX` | D ` { F > k 7XQ.g.4Xr.",
"I / n.V = L.d.k.oX; jXW.> E 3 ^ - 3 e.I #.;Xe eX[ LX<.P @X/ 7Xj L W H.dXu B.b.^.$X/ c.G._.UXKX| hX . . .D   D v 6 } g > 6 8 5.9.",
"k { [ ] 1 3 z m.p.U b.c.6 . } l 1 3 <.|.#.m ^ E NX^ rX. 0XL Y.&Xq.D.W /.g Q.5 2.6.b.H ) hXUXUXhXhXKX|   @ # l { @ } } 6 ) F :X2 ",
"j [ NX2 E z $Xx.@XH.~.P.H 6 { j V z P 9.8.b.W.A.m.] 8XC [ 9.I {.&.J N ~ T Q.U I B.e.Y a.zXzXKXAXhXhX| _ 8X| H ) f { W ) D./ L.w ",
"e ( VXL.!.$XvX2.>.@.9.9.9.c 2.r n.W 2.2.Y ! / T x <./.W.N N.i 8.*.4.FXrXC.v.-XDX>XV.H.H.sXG.AXAXG.`.a.R.NX_ & 5 3 ~ : r.*.XXMXcX",
",XH.H.-X8.=XGXDXB 1.I.H.-XK.[.t.Q.Q.,XjX:XT.~.F.e x !.<.Q Q >.1.#.@.>X%XC.e.}.;.5X|.%X9.4X) MXzX>.6.&.r.oX5.I $XH.Y.r K.5.OX2XDX",
"cX*.d.XX[.K.DXDXN e.>X|.cX1X<XOXL.(.;X-X-XT.b.2.a < P q N C v.1.q B N.#XN.].].;. X.X].$.>Xd.MXU.N.,.a p f.1X-XxX>X Xt.<X.Xh.h..X",
";.q.j.GXXXMXXXH.M #.&X5.XXOX6X6XcXnX>XoXtX>X8.P 8.c < - 1 1 3 C $ v.C.yXe.@X#XcX6X5X<X:.OXoXdX$.@.8.M 8 Z 0.K.K.r.8.r.@.8.$.h.j.",
":.<X;. Xu 5XJ.T.B.4.&X&.J.@X#X#Xi 0.4.4.}.|.q.r.I.9.3 h 1 = = V $ 1.- P #.N.>.,.{.SXgX{.XX{.<X*.i 2.6.N x >.[.dX[.K.H.r q q @.;.",
"u.h.j.p O.J &.2.4XY.T.U U e.,.@.7 '.3X#X%XV.e.#X7.( z 2 R X = { 1 rXx.<.P m m H.o.+X{.{.f.j.<X[.oXU.{ V j L q.s.r.~.$XN < N @.#."
};
