/* XPM */
static char *_____________[] = {
/* columns rows colors chars-per-pixel */
"64 64 256 2",
"   c #020005",
".  c #03010C",
"X  c #09030B",
"o  c #040113",
"O  c #090415",
"+  c #06011C",
"@  c #09031C",
"#  c #0B0919",
"$  c #13061B",
"%  c #130F12",
"&  c #050123",
"*  c #0A0224",
"=  c #03012B",
"-  c #0B022B",
";  c #090927",
":  c #12022B",
">  c #140428",
",  c #030134",
"<  c #0C0233",
"1  c #03013C",
"2  c #0D023B",
"3  c #090B38",
"4  c #130434",
"5  c #12043B",
"6  c #140A3B",
"7  c #180738",
"8  c #191336",
"9  c #0D122A",
"0  c #24073A",
"q  c #2A1233",
"w  c #26252B",
"e  c #2B263C",
"r  c #2A2737",
"t  c #020143",
"y  c #0D0143",
"u  c #02014C",
"i  c #0D014B",
"p  c #070B44",
"a  c #130344",
"s  c #140A43",
"d  c #13034A",
"f  c #1A034B",
"g  c #190848",
"h  c #010054",
"j  c #0C0153",
"k  c #01015B",
"l  c #0C0359",
"z  c #140153",
"x  c #1C0253",
"c  c #15015B",
"v  c #1A035C",
"b  c #1C0B5B",
"n  c #190A54",
"m  c #051356",
"M  c #1A1258",
"N  c #101548",
"B  c #250648",
"V  c #250759",
"C  c #261459",
"Z  c #361956",
"A  c #300C4F",
"S  c #2C2646",
"D  c #2D2357",
"F  c #342855",
"G  c #343054",
"H  c #020164",
"J  c #070367",
"K  c #1A0364",
"L  c #14026A",
"P  c #1B026B",
"I  c #170765",
"U  c #060276",
"Y  c #1C0274",
"T  c #1C017C",
"R  c #170675",
"E  c #181377",
"W  c #0F1466",
"Q  c #250767",
"!  c #380969",
"~  c #271467",
"^  c #371569",
"/  c #23037C",
"(  c #270877",
")  c #37077A",
"_  c #2A1478",
"`  c #371677",
"'  c #33296F",
"]  c #162464",
"[  c #460A5A",
"{  c #481A79",
"}  c #4D1170",
"|  c #442367",
" . c #472879",
".. c #572679",
"X. c #543372",
"o. c #693378",
"O. c #512759",
"+. c #5C4A71",
"@. c #050187",
"#. c #1A0286",
"$. c #1A0495",
"%. c #120C8F",
"&. c #280788",
"*. c #380686",
"=. c #2A1489",
"-. c #36168A",
";. c #280595",
":. c #370797",
">. c #2B1796",
",. c #381995",
"<. c #3B2598",
"1. c #34258D",
"2. c #3709A7",
"3. c #3A16A7",
"4. c #320BB0",
"5. c #3E2CA6",
"6. c #451A88",
"7. c #451A99",
"8. c #520D93",
"9. c #6C1896",
"0. c #472789",
"q. c #582488",
"w. c #46249A",
"e. c #583698",
"r. c #52318F",
"t. c #673988",
"y. c #65269A",
"u. c #643997",
"i. c #6E2E90",
"p. c #451AA5",
"a. c #5010B0",
"s. c #6E18AF",
"d. c #4826A6",
"f. c #5728AA",
"g. c #5935A9",
"h. c #5A28B7",
"j. c #5C37B6",
"k. c #4A2FB3",
"l. c #6727A9",
"z. c #6A37A8",
"x. c #6627B9",
"c. c #6638B8",
"v. c #753AB8",
"b. c #752EAD",
"n. c #584D8F",
"m. c #6E4D94",
"M. c #5A48AC",
"N. c #7647A9",
"B. c #724CB3",
"V. c #76679C",
"C. c #3307C6",
"Z. c #3F2AC7",
"A. c #4F17C7",
"S. c #6E19CD",
"D. c #562AD1",
"F. c #7739C8",
"G. c #6C30CE",
"H. c #5C2AEB",
"J. c #6F36F1",
"K. c #591DF7",
"L. c #744DCF",
"P. c #7345EF",
"I. c #786ECB",
"U. c #853AB9",
"Y. c #9035B0",
"T. c #902E9C",
"R. c #8E52B5",
"E. c #A752AF",
"W. c #926EB1",
"Q. c #A76DB8",
"!. c #8C5D8F",
"~. c #9036CE",
"^. c #A638D1",
"/. c #9A33EE",
"(. c #8946C8",
"). c #8554C6",
"_. c #9759C9",
"`. c #9849D4",
"'. c #8F4ED0",
"]. c #A548CB",
"[. c #AC53D5",
"{. c #8F65D0",
"}. c #AF6CD3",
"|. c #8748FD",
" X c #9353F2",
".X c #B154EC",
"XX c #9B6FF7",
"oX c #A96AE4",
"OX c #B271F2",
"+X c #C777DA",
"@X c #D072D5",
"#X c #C95AF4",
"$X c #D967EF",
"%X c #C675E8",
"&X c #D87CE9",
"*X c #C96AFC",
"=X c #D768F9",
"-X c #CB77F8",
";X c #D678F7",
":X c #C769E8",
">X c #F77CFE",
",X c #EA72F6",
"<X c #DA5AEB",
"1X c #AF86B7",
"2X c #B58BCF",
"3X c #BAA6D6",
"4X c #B38CEF",
"5X c #A999DD",
"6X c #D08FD3",
"7X c #EE94D9",
"8X c #D4ACD8",
"9X c #EDAAD8",
"0X c #C487F9",
"qX c #D98AFB",
"wX c #DA96FB",
"eX c #CD8FED",
"rX c #E485ED",
"tX c #E688FA",
"yX c #F888FA",
"uX c #E796FC",
"iX c #FD93FF",
"pX c #FE9BFE",
"aX c #F598FC",
"sX c #EA9AEA",
"dX c #D7A6FD",
"fX c #D4B1EF",
"gX c #E8A5FE",
"hX c #FFA2FF",
"jX c #FEABFF",
"kX c #F8A8FA",
"lX c #EAB9FB",
"zX c #FEBBFF",
"xX c #F8B5FA",
"cX c #F2B1EB",
"vX c #DDD6FA",
"bX c #DAC7F1",
"nX c #E9C8FA",
"mX c #FDC3FF",
"MX c #FECCFF",
"NX c #F6C5FA",
"BX c #E4D9FB",
"VX c #FDD3FE",
"CX c #FFDCFF",
"ZX c #F9D5FA",
"AX c #F7D3EA",
"SX c #FDF7EB",
"DX c #FEE2FF",
"FX c #F4EAFE",
"GX c #FFECFF",
"HX c #F5E7F9",
"JX c #FEF4FE",
"KX c #FEFBFE",
"LX c #FCFAF7",
"PX c #EDEBF2",
"IX c #EBD9DC",
"UX c #CD8CB6",
/* pixels */
". . o o o O + @   @ q m.4 B 1 n b 5 & 2 f oXX.@ o = Q.yXlXBXHXPXnXNXuX=Xu y d & ; - 0 0 - = : @ {.| * + # o . X # . o . . X   % ",
". . o o + o @ o O @ B m.7 B 5 M d < ; < i W.X.@ o = Q.iXlXvXHXPXnXNXuX=Xt i z < = < 2Xm.- 3 + $ m.Z + o ; o . X O . O . .     w ",
". . o O O + + @ O - V e.a B 5 s i = 9 < i u.^ < + = R.yXlXvXFXPXBXnXuX$Xt n L n 2 2 DXm.= ; o o | 0 o . ; @ o o o o O . .     w ",
". . . O o @ @ * @ - C r.f 5 s = 5 - N 2 x -.^ f - , Q.yXlXvXFXFXnXlXuX$X1 M E Q b V dX..< ; 9   q $ X   o * * + o o # .       w ",
". . X X O @ * * * 5 M ` a a Z 5 5 < s a V ^ ^ I s 1 E.yXlXvXFXFXnXnXuX$Xt n E I ~ ! {.{ s 3 9 X q $ X   . & - * o o @ . . . . w ",
". .   X X @ ; < 4 s g V < 7 X.C a y p i V ~ Q ( b h _.yXlXvXFXFXnXlXqX=X1 i I d j Q }...y 6 + $ > $ X   o + * ; + o # . . . . w ",
". .     . @ ; < s s s 7 > 4 u.^ a f t j n V K E E H '.tXlXvXHXFXnXnXqX=Xt y j < u i _.q.1 s & > 7 ; O X o + + @ @ o # o o . . w ",
"O .     . @ - 6 2 2 7 : $ > r.Q a b u n f x K E #.U `.yXlXvXHXFXbXcXuX=Xu i i > M p R...i M ' 7 2 * O $ @ + + o @ + o o . # . w ",
"O . . o * 9 6 s < 5 5 5 5 f A C 4 N m i a Q ~ Q >.k ].aXdXNXFXPXZXbXsX-Xt h ) < W x ..Q 1 f m.A & 4 7 + 9 $ X X & + # o o .   w ",
"o o . o * : 2 5 < < < - - 7 g g 7 = , m.{ 1.L ) U -.:X&XnXCXPXPXBX8XiX:Xn u ` V ~ z i C f < A * , 7 A = = @ $ o & + & o o .   w ",
". . o O ; : 4 3 - < - * - 4 7 5 2 = 5 DXg.H =.:.R.4X>XrXfXIXLXKXBXnXiX$Xa , ` ).[ I m 2 B 2 p 3 p - : 2 N 5 7 : * + & o o .   w ",
". o # * ; > - < = - & & - : 5 2 t ~ V dX6.L #.F.%X X[.rXbXHXJXHXLXCXpX+Xx j P r.}. .M y n 2 3 , & Z A , , - - & * & & # o . . w ",
". o @ * ; - - - < * + * ; < 2 d / <.h 0Xb.l.4X7.q.$.s.uXFXJX1XW.W.fXGXeXq.*.L z { qX} n t p , 3 & nX8X6 = 6 B 9 - + & + o . . w ",
"o O # > - - * - - * & * - 2 z K :.;.T OXtX_.-.P K @.~.lXLX}.Q m.` o.JXZXOX:.-.( h } aXu.1 1 C 1 + GXnX* & > > o = & ; @ # . . w ",
". O ; ; - * * * - - * : < d ( -.>.U *.-X].) _ / &.@..XxXDXu.{ 3XV.! 8XZX-X2.=.&.( 6.{ xXN.B y 1 < NX2X5 p 4 4 9 ; & ; + # . o r ",
"o @ $ - - * * * - - : 4 a Q ,.k.J -.oX$XU.h.D.F.h.$.=XcXGXq.r.G n.q.xXCXb.&.=.a.Q _ e.%XpXi.t M 1 dX2Xy 1 < 5 < - & * + # o . r ",
"o @ + @ @ & * * o B K ; m #.! G.s.@XhX(.tXjXcXxXsXtX;XSXLX9.9.w 8 o.LXCX.XP R A.6.E ( R.;X>Xu., p 5XR.2 p p < - - & ; @ @ @ O r ",
"+ o + + * * * * @ K ~ & j p.b.c.}.zXb.b.'.z.R.OXcXkXxXJXGXY.9.n.Z m.DXCX0Xx.:.&.&.=.L w.R.aXwX| 1  .r.y 1 g 5 4 - & * & @ @ @ r ",
"o o @ + * & - * 0 L p , 7.F.l.z.zXB.L h.&.@.R ( !.NXVX2XR.e.{ ' X m }.DXKXhXv.&.@.&.E I (.N.,XiX} 1 C n 2 s 2 < : * * & @ + O e ",
"@ + @ * * * - - V @.+ ^  X8.8.:XgXR #.3.D.D.$.{.NXCXB | R.j j Z . x H [ 3XJX,Xj.;.*.>.k R.R.^.iX}.V t C B g p < < = - * * @ O e ",
"@ + @ & * & - - L $.4 i.G.( B.MXM.#.>.5.-.8.`.lXxX5 r.2X2XB.t O n 4 M ^ B 1XZXtX~.:.=.J } uX6.OXiXm.t f A f p a < = - & * @ @ e ",
"+ + @ * - - - - R #.^ y.;.-.gXjXJ T p.L.e.+XxX6XB n.I.1XQ.g.n.V.B.W.' 1.o.X.n.pX=Xs.<.H i.pXh c.iXeX^ 5 Z g a a < * - * * + @ e ",
"* @ * * * - - - &.Y 6.d.#._.DXB.$.d.y.U._.gXX.B ^ n.V.N.u.m.V.2XQ.2Xz.g.W.o.j [ xX].,.k ,XgXm J :XjX[.f M C p g < - - & * & + e ",
"@ & & * - - - < &.c 3.<.*.-XZXg.a.=.z.:X:XfXm.r.z $ 8 ^ 6.W.o.B.2X!.n.m.' R ^.bXFXY.*.{.jXm.h Y i.pXaXA p ~ y x < * - & * * @ e ",
"+ @ @ * - < 2 2 ;.H =.d.l.rXMX=.G.` c.OX[.iXDXPXp.0 $ - @ D w.1XeXV.t.o.; t MXJXGXdXqXkXoX/ L U V aXnXE.h 0 m f 2 3 9 o ; 4 * e ",
"@ + & * - - < < R R &.;.b.jXzXB. X) k.[.pX&X+.| V.R.* 4 `  .n.eX3X4Xu.!.N t 6XBX}.7XcXjXQ.R @.R y `.NXsXJ < m a = & & + * : * S ",
"@ + @ * * - - - v / #.R R.kXzX3X,Xp.3._.7X| < ^ !.] 2 z._ ) E.M.N.4Xu.X.s z V.DXAXxXhXkXxXB.$.k j f.cXmX0.a y a 5 & + + : - & S ",
"* * * * * - - ; g ( #.J {.&XzXAX>X(.$._.sX{ D 0.Z 1 W.kXe.V [ n.t.B.u.A V ) r.JXAXsXpX{.'.hXR.~ 1 ( sXmX_.j < C | : + ; : * - G ",
"* * * - < < < 2 < w.,.J B.eX+XCX7X;X4.l.MXu.Z D L 8.KXLX.X) & X.m.q. .B q.} P 3XMXdXoXgXs.S.gX1Xj h @XMX%Xu * ' o.7 + ; 4 < - S ",
"- - < < 2 y i d 2 ).L.H 0.gXY.MXVXsX.X8.qX8.| C 8.}.LXSXrXy.p o A ^ x ' eX8.P ~ B.h J wX&Xl.x.aXoX .@XMXqXu 7 ` n.4 + ; < : 7 S ",
"- < 2 y d j c I l B.c.U R oXE.-XCX9XgX[.:X8.| c U.KXLXDX8Xv.Q # # Z N +.mX~.-.i x h J e.zXqXp.x.xX+X&XmX4Xj * ! ..> + ; - 4 7 S ",
"< < 2 i n I I L Y ! ) #.H 6.:X~.gXJXNXpX<X6.^ } CXLXPXLXW.R...> O F 3 7 iXY.( Q ; x M , L.=XL.J ].jXiXzX4XL + ` O.* & - * < 8 F ",
"- - 2 f b I P ( ( T -.r.P :.D.F..XlXDXAX7XOXS.].JXIXGX2Xb.^ ' f q O.j _ `.s.V | 1 , N , n _.[.:.%.kX7XJXR.t d ~ F > * - 5 5 5 D ",
"; - 2 d c K Y Y / T K -.v.x.a.oXE..XwXGXgX:X@X*XOX2XeXOXd.~ j k , ^ r.` T.T., F X.: * N 1 q.OXD.$.%XxXGXX.c j ~ F : * 4 6 s 5 F ",
"* - < a z K / / ( :.&.-.).x.U.jX`.Y..X0X6XyX<X6XkX%X&X=X[.l.Q L 3 C b 6.Y.9.c c A A - 8 5 i.OXp.v qXVXsXu c n M C < - 5 s a 6 D ",
"@ * - 2 z I Y T =.,.p.f.v.a.0XmX~.8._.B.R.=X>X6XrX6X9X}.tX;X,X=Xv.9.P ` i.} | | ^ Z q + * t.OX&.R.VXzXt.u j B C Z a 5 7 g s 6 D ",
"@ * * < d c P R ( #.;.c.L.s.tX7XF.4.-.nX} h.-X*X2XVXGX6X&XrXqX%X>X,XwX{.T.i.B 0 M ' S & * o.R.L.ZXzXrXx W J f ~ ~ g g g s a 6 S ",
"& * * - 5 d v P P R T 7.(.l.-XkX`.3.%.{.2Xy @. X<XhXzXwXdXgX@XrX>X$XtXtX>X=Xz._ u t 1 = - i.%XxX6XR.tXj R ] x b ~ g g 6 a a 2 S ",
"* @ * * : a z c L #.d.) f.x.`.jXgX*.$.I.W.n.Q L ~.qXrX.X*XtX&XaX:X^.8.~.,XyXNXlX).V a a 5 E.NXeX~ i.%XK c W Q K C f g 7 < < - S ",
"* @ @ > * 5 f z P #.{.` *.~.x.%XxXoX/ 4Xn.DXfXX A bXGX<.R 9.[.,XkX&XXXh.a.^.[.iXzXgX} r.dXuXT.B h [.z.Q ~ f 1._ V a 5 5 , < - e ",
"& @ @ * - < < 2 t z _.7.$.! G./.pXxX4.2XSX}.cX4X. E 6X9.B W H /.sX#X%XhX&XR.s.^.%XdXpX>XB.H k b ! oX) Q R ~ _ z i 2 4 - < < * e ",
"& + + * - < 2 y y x z.7.$.W.L.s.U.MXcXa.XX6XU.jX1X, O._.A B 3.OXHX^.8.^.*XuXpXcX_.[.,X,Xe.=.<.l B.z.l P ( _ I c y < < - , < * S ",
"@ + * * & < < 2 - x 7.,.&.FXL.2.E. XDXjXa.mX`.Y.pX+.o n.X.B ;.dXSXR.$.:.4.G.;XrX:Xl.v.-X[.,.<.w.f.P P -._ ~ j b < - - * - < - S ",
"& @ * * - < 2 y @ x 7.-.Y KXB.$.p.`.tXAXGX.XrXS..XLXG # n...#.AXJX4X>.) T f.pX[.*X`.p.F..XF.1.c.Y l <.0._ E i x < & ; @ - < - S ",
"@ + + * - < 2 2 : d ,.#.P LXM.$.%.A.(.+XGXPX2X,X~.JX}.- S X.M.HXJXeXh - f <.zX]..X-Xk.&.~.F.>.7.-.1.1._ ( ( x i < & ; & - < - S ",
"& & @ * - - 2 2 B j &.L ( GXg.$.d.R 7._.OXlXSXhXgX8X.X8.* w n.sXKXGXE S M U hX#X`.'.k.d.x.p.,.w.w.d.7.-.Q v c f < - > * < < - S ",
"@ & * * * < 2 2 Q j R L *.CXg.&.=.r.x.A._.>X,XLXCXnX#X^.} x 3 q.2XxX>.8 M J 9X@XY.B.k.c.7.1.g.6.-.-.g.L.Q x d n y < < - < < - e ",
"& @ & * = < 2 2 P I W Y ;.MXj.=.e.<.p.S.^.qXuX6XnXGXyX,X.XA.1 f [ +X-.o 6 >.aX#X^.g.w.f.<.>.<.,.7.*.).4XQ Q d i i 2 < - < < ; e ",
"+ @ + * < 5 a d c ( =.-.Q pXB.3.<.7.x.x..XyX<X-X<X$X@XmX9XwX).#.c &.=.P f OXyX^.c.f.d.d.w.,.<.,.-.-.g.g.` I C d f y 6 6 s g s G ",
"+ + & * - 3 y a g ~ &.>.E iXM._ ,.f.x.l.=X>X9.-..X*X[.=XaXjXLXfX}.y.l.8.9.jX-XY.c.f.f.g.d.w.,.-.-.=.w.1.K b C f d 6 6 6 s d s G ",
"+ @ @ * - < 2 a N C ( =.P tX .a ( d.j.h.#X<Xs.@.:.1XcX^./..XAXJXmX&XyX>X$X:XT.'.(.G.j.d.<.>.-.=.7.( _ _ I Q ~ g n a 6 2 p g s G ",
"+ & @ & - < 2 i z n i 2 2 @X6.L *.:.M.j.F.#X/.:._ 6XxXU.9.%X6X4XrX@XY.OX;X].}. XL.f.p.,.=.-.<.,.-.&._ -.P V M i p 5 8 < a y 6 F ",
"+ * & * * - < 2 z 2 , * , @Xe.-.M.q.q.( k ) ~.oX0XDXf.z - W.mX;XgXZX-.L 7.l.6X~.x.f.p.d.,.&.=./ _ ( ( ~ b z s 2 2 < 4 - < 2 < S ",
"& + + @ - - < 2 < - M M I =X0.M k n V { M.z.z.'.E.fXJ 1 p 4XmXwXeXKXI.H H e.sX=XL.G.h.f.7.6.*.( Q K K c z d y 5 < * ; + < < ; S ",
"* & @ & & - - < 2 , C M R #X_ z E g.N.z.0.! } v.UXVXk.J j BX2X4X4XJXI.;./ ).8X=XG.x.f.f.p.w.d.7.I Q c c n s 6 6 < & * @ * - * r ",
"& @ & @ & - < < ~ i 8 & 1 [.d.<.c.f.&.k ( (..XF.S.DXl.y R KXIX3XdXJXv.&.*.-XZX-XG.x.x.h.p.-.) ( C ~ b n C s * * - + # o * * $ r ",
"o + + + & - > > y 4 7 Q &.M.h.4._ a V F.OXl.*.a.IXPXT b #.FXJXfXvXbX' k L i V.vXoXx.A.-.,.D.4.( x a 5 4 - 3 M g - - ; + + * * S ",
"+ o + + @ - < 3 6 d f f P k.3.( p _ h.P.l.V ,.XXGXW.R 2 M.JX5XwX4XdXL.M.e.< - 0 o.x.a.w.! ;.Z.A._ I f 5 5 5 s y 4 - > + + * & S ",
"+ @ O o o & < i V g f n / 3.( : t 5.P.P.7.l R L.4X! P V ZXdX0X4XoXeX4XwX4X(.S.a.x.H.3.L.7.< 3.p.,._ K g 5 4 6 1 3 < 8 - * @ @ e ",
"+ + X . o & y n b - 7 ( ;.-.f $ U Z.K.J.L.p.;./ ` -.f B.8X{.OXXXoXOXOXoX X|./.J.P.a.f J.A.  ` w.3.&.Q n 5 4 7 4 : < 6 < - * @ r ",
"+ + o X @ - s n d & g &.2.=.g * v &.2.h.J.P.P.G.{ 7. .G.} s.q.F.v.F.F.G.G.J.G.G.) ( C K.A.X *.4.4.>.( V 5 < 5 5 - - 6 5 < & + r ",
"+ o + @ ; 4 s g * 2 Q ( &.;.Q 4 * 4 B ) C.K.J.|.XXJ.XX|.|.|.|. X XXX|.J.H.a.:.) : a.J.G.v X &.4.3.;._ ~ 5 5 7 6 @ & 6 s s < + r ",
"@ o & - 3 7 4 - % y =./ -.&.&.( 4 o * a P / :.2.A.D.a.J.H.J.J.H.D.H.A.a.:.) Q ! g.H.D.V O 2 2.p.:.*.( ~ g s g a # o 6 N g 5 * S ",
"# @ & , 2 4 - + O - =.$.&.( &.2.b , * p - O * d u Q B f f v c v / -.Q Q -.a.D.J.G.-.> % B 4.D.4.>.( ( C g B g f % o 4 g M s - e "
};
