/* XPM */
static char *_____________[] = {
/* columns rows colors chars-per-pixel */
"64 64 92 1",
"  c #55110200",
". c #551E0C00",
"X c #55210F00",
"o c #55241301",
"O c #55291603",
"+ c #55271805",
"@ c #552B1A04",
"# c #552D1B09",
"$ c #55311E06",
"% c #55301E0A",
"& c #552F2000",
"* c #552F200D",
"= c #55342105",
"- c #5534230B",
"; c #5539250C",
": c #553D2A0D",
"> c #55352513",
", c #553C2612",
"< c #55372813",
"1 c #553C2B13",
"2 c #553D2D1A",
"3 c #553F301C",
"4 c #553F3221",
"5 c #55432D0E",
"6 c #55412613",
"7 c #55422E14",
"8 c #55412F1B",
"9 c #55443115",
"0 c #55493216",
"q c #5544331C",
"w c #554A351C",
"e c #554C391D",
"r c #5550361D",
"t c #55523B1D",
"y c #55453522",
"u c #554A3722",
"i c #473824",
"p c #4D3A23",
"a c #463928",
"s c #4D3D29",
"d c #503723",
"f c #523D24",
"g c #593F25",
"h c #523E29",
"j c #593F2B",
"k c #4F402B",
"l c #554125",
"z c #5A4326",
"x c #584827",
"c c #55422B",
"v c #5A452C",
"b c #574A28",
"n c #5D492D",
"m c #554431",
"M c #5A4632",
"N c #574833",
"B c #5D4A32",
"V c #5C4C3A",
"C c #5F5136",
"Z c #5D503E",
"A c #60472D",
"S c #624B2E",
"D c #624D33",
"F c #694F35",
"G c #634E39",
"H c #694E39",
"J c #655135",
"K c #6A5236",
"L c #65523B",
"P c #6A553B",
"I c #66583E",
"U c #6B593D",
"Y c #735B3F",
"T c #5E5141",
"R c #645542",
"E c #6A5742",
"W c #665946",
"Q c #6C5A43",
"! c #675A49",
"~ c #6B5B4A",
"^ c #725C43",
"/ c #795F46",
"( c #715E4A",
") c #795F49",
"_ c #736045",
"` c #74624A",
"' c #7C634B",
"] c #746350",
"[ c #7F6951",
"{ c #80664D",
"} c #82684F",
"| c #836B53",
/* pixels */
"-,,,,666O%,,oX>@=======:======;-=--**--<%-------@@=---;;---;--@=",
"PGGGHHHGHHDEEHQsLJLPUU^_UUUKPJJLLLLIIQQ(QEEIRLLL`QIJBMMBILUIQEE_",
"DGPP^^){)^HEICb@nnvvxvlcSnnvlfrpnMnnvcccBBnccsrukcMLIIILpwwspkcM",
"ffjMAFHK^)E^EIIqBDnnvlfeDBnnvllfBBBBccffBDBnccclcccclfuuBccBBBJL",
"UPKJDSAASJlbcnC1eflzllftcxzvvlvxttzzclfdzzzzvxnzcpwqwsNBBBBBCMnM",
"DJJJKKKKYUlbnUI-vnDJGDxvnnnnnSnDnASSJSnxAAAnAAASccccpiq9Ncbnnckc",
"ftlznSSSzxtebJI:fznnnzdrfzgffffrtzAAAztrtzttgrtt9ecBLCMbsepkkppl",
"Snxlr055tJJblbb&efvSDDAnJJGSnnvzrtzSSSSAKKKSSAzALBclplcMsuesllcN",
"SxxASFSStltxexJ:znjrrng0frDAFFvAAzttrtttztSASFASuccccNbcfuuwBkcL",
"lzSSKFAglzlxexC:SAgfggrrgrAggAfgAzzzgrrr00zznArlvMbchcclecpqqlep",
"llznFSAdtttl3eb:KAgjgrq0zgAjAFFFAASAzte0SzAtvnGUBBMccccckLxccLbM",
"xttttAjjtlfl3ib&ggdggggg00rrfggvnnAzvffp00tzgzghespepkclppwskswc",
"nfpejjvjvvcceeC-/{{YHKHAASSSAAAAzlllcllxrlcBJBBvslcccNMcCncsnqpb",
"cfdhjjjgjclbebC<)|{Fzjg0gjgjgrgdfppppsccwpqefpccvBBbvbckwlp-wqsu",
"hupdjjjdddlkqkC<){}{{{{{HHAAAvDneuupukpkwccLIBBmslspupuqwck9cnMB",
"hw770ddfdppkekC:YKY/HAF^)^AAgwgpuupipqq3ikikssBbcBMcMBCJqi9sppqc",
"7,,;%;;%;%;;;,,707$;;-1ooOOO$$==;---&=*=@@&--$--oOO@@&&&@@&-<:13",
"||}}''')^^)^QPGDL`QILU`pLUUQ^UQECBCLLIPI`QQQQIPILIUQ_QQWUUIPPQ__",
"77udjvnBvBnDSDBD0nMcwuM;qusvBMvcBBMBMBBBfuwqeuscqilbBnMbCBCCnlkq",
"DDDDDnvjPHDvjghjMMBBBcDumbnMvcspcciwqwuucsuesfcCcbnMnlspeplcnCCC",
"fffvvDDHQPHDBvvjvfspnsD7DGDLLJGLcsqqwscnncluuukcJBJJJJJJKBlw99ee",
"vldpwqqw80dffdwwccv9ccQ,eepdfccccpeq0escMclksclneeeffllceflvnJCJ",
"wwrdjvDDvvvvvdw0fvDwnv^9^QEUGncgbcclsspslkklbcMCQUUJJnlfwlvnnlw9",
"fhvBGHDHjhdepgjBfpBcDwLecnBDDDnnscccbnccBBBCJMMMlnDJDDnnLnlfeeel",
"gde0wfnDhgcnnvhvennvfxUfDnvvDJJDusksppcncckklplbSxzASKKSxnASSJJJ",
"vjjhdw08drdhjvvDvJSntfn;zzzvcvnnllccpepspqekclcnxzxxzzxSltlttltt",
"djnDPPPGpwedghnDvJDGJPYwznnngflnwplfuqqqpepccspkznSxztxxSAxnzzll",
"DBvhdghvvgvnBADGrnlSJYY0nDJGSvnnpsccclcnBBBBCnnMSSJJSxzSnnxzlllt",
"de80qdjnDDDGGDnDDKFKFKF;trrrtt07eplppklcspscccMDrtrttt05xzzzxzzz",
"DDvjgddpvjvnvdddDYKKKPYwFSAFYKSzepui11qqpwqepescJSSJKKSzSzSSAxzA",
"0ppfvvBDdpdddeee0lfltAKertgnzzfecncclplcMncxnccbtttAAzztzzzttttt",
"DBvvhvvnvcfclchndSnfrrn5dxDJGSSDqpcckskcqqusksplexSKJbSSKKJSSxtt",
"+++.#.* o.X++o.o@oooooo@o.o@@+@#XXXO#O@#oO#OO####o+#++++++XX+Xoo",
"T!~!!T!a!!!!!!!!TTW!WWTZTZNVZNZRRZVVVVVRE!WRTGTVTTT!!!TTTTTWT!TT",
"44aas4s>4>>><><2*<<33443k44y4333pyyyy88828848yy8aasmmsia2444y4a4",
">>>>44s>aayaayaaiyyyskNNkakmksyiaasmhayi24y88yyy84aaiy88y42224ya",
"aayya8h>42244222NkkyiqaskkmNNNNNhhmMVMMNMMMmcmjsmhcmMmcmmcchsjmm",
"yahhTsV>yyyssiyy3333331-<-**><3i2>%>>>8i28822248y880q888>28wiq81",
"*>4ya8aO>>>>>>>><23qiyyqsyqqqqikiy88y8ihyuuuishuuwpddpweddfccgdd",
"TTjasyM,a84yy88uiyqqqiskq3iksq22yquhsy828uyy88y6hvvDDvhvgfuw0pgc",
"8hTMjiGi>>>>1yssqq3qqqipskkpqqqpphjuw8uuMjjsiuwqwddw00wf0w0gdjq6",
"R]]EThTycmcsshhsbNccNNBCCLLLLZWQGGEGLLE^^Q((QPDM^YY)}|)^GPQHSAH^",
"MGRTQR]M8yyqyuiyspuesskcBBBnlsslDDDMhdfhvcdddvBGjvDGDvjheeBvPBSj",
"TVMjVjV-8yuypmMMckklfcbbkcMMbccchhnBvcvn0wphhvhjfjvjuwwdvdffDDHD",
"csspMML,upuqwussuwwquuplqpcclsup0ujvhdddhhghddwwhpdhMDjuMMMMuudM",
"RLGNGmG-EELBNBDVBBBMMCJLMVLJbcfhDGHGBcff^EGDBnDDjBGQ^EGmMGDQDGvM",
"dcMjGDQuhhhpudhdfpppescc70wwqquf78wwqqrhepfhjdpw,yhhiuyiMu2,yhjm",
"pcjupqh#upuqwuuquwwqwyppMmjiwusjMvjpwwdhMjjppepucsismGEEhhMhmsMV",
";1.o-.ooo<X.@ooo#>oXX.#oO%O#+#>X@*-oo.o@@oo@-*o.%#XXO##O.o#oO%#X",
"V``BCbCCZ_`IIICL]]!RTR~W!~TMmcVyLCLQ~(RVEEELVLW((~RERREE~(EVVRVj",
"qiEq31e3lqCbqk2qbmkeypapTGssyuB3caqkBLCC13qqsckiuuuupcMDmhi78yy8",
"b1NbeeqqkqCCqe93kCikpyNymu8y3iN1sskiwikBNci1qukbRLGjuqusMMMhpshj",
"b1pc3k2qpwkbe<e1eC3kk1C1GckbkbE3wkcki211kLQB1-qcqfnDvccxlnJnhppv",
"uNNCqbklkkqCb3kqkCibk1B9cw9kicI1NcccNBck-kQ~MiqqelJUPnlwwpnCvedl",
"qCkbcBcee31bClqeebppeek9c91keNQ9pq11yccbwqqpplcn79dxJJJnswwlltel",
"cl;l_be2e:9kIC1elebe9l1w_clbeb_11qlkw9qqNbbkscBLDxeelnJJYxetxtw0",
"9w7lnPxn9be1n_Jp99nJtlt:tSUl99J;wepfppu0uwwefpfcxzltJ0z5JKSt5tS_",
"lvxe;fJJl:lJllDet95Kxbw9nbSe00J5ppfffpuqdpuplfcv0xSJt5eltlSYKStx",
"nDvwe:9Jllelf9eUn9d7'cnflenJJxD$LLDnge01vfffffpftxtntx0tK0:tKSxx",
"Jwnxq:tqlLlwe9wKfvw7bJxnJeelDnJ6xnnBBBDBBvvncswen0:ttYr0eelbxttK",
"eUS=etttzexJttlw7Aew7hdPQgwfBjUqpfgcvBDDBSDGGvzcr500rFzDAr0gK/Jr",
"t0SSe5SSAernxtetpdvjj6f^JlMvnjH7lgptpedddfcDDDDDtenrdrgvgDDd0lKY",
"treJJ00USJ05ltwJjhd^pjdDGGGgppE0ew0wrfgvreedglvnjvvvDdgwgjDAnhxS",
"xx95:SJzzxxe9nKlh7DhBhB,uD(GhdH%vvlffflvnlreewrg7ggHFjDvvgvY^Sdg"
};
